<svg xmlns="http://www.w3.org/2000/svg" width="1024" height="1024" viewBox="0 0 1024 1024" version="1.1">
	<path d="M 486.314 265.555 C 432.773 273.364, 386.091 302.310, 356.267 346.192 C 333.579 379.574, 322.768 414.368, 322.768 454 C 322.768 509.068, 345.030 558.796, 386.250 595.805 C 422.312 628.182, 471.590 645.749, 520.500 643.663 C 591.540 640.634, 651.518 601.956, 683.574 538.503 C 716.444 473.439, 708.567 395.502, 663.212 337.039 C 636.793 302.985, 595.983 276.973, 555.500 268.386 C 534.463 263.924, 505.596 262.742, 486.314 265.555 M 494.500 271.061 C 441.458 276.290, 389.937 307.057, 360.953 350.812 C 331.945 394.603, 322.543 443.872, 333.644 493.921 C 351.136 572.785, 418.289 630.868, 498.923 636.875 C 528.905 639.109, 558.043 634.301, 585.500 622.590 C 641.428 598.736, 681.362 549.641, 693.641 489.639 C 697.142 472.534, 697.945 446.910, 695.516 429.816 C 681.454 330.840, 593.416 261.310, 494.500 271.061 M 400.241 336.567 C 397.407 337.979, 393.652 340.771, 391.896 342.772 C 379.178 357.256, 379.799 385.058, 392.989 391.750 C 397.144 393.858, 398.672 394, 417.212 394 L 437 394 437 450.608 L 437 507.217 434.740 506.650 C 428.723 505.139, 406.423 502, 401.713 502 C 390.643 502, 381.365 509.541, 378.903 520.541 C 375.670 534.990, 387.524 554.292, 401.843 557.893 C 403.854 558.398, 420.154 559.312, 438.065 559.923 C 479.414 561.334, 499.135 563.019, 574 571.539 C 615.006 576.205, 617.960 576.262, 624.819 572.514 C 633.467 567.788, 638.526 560.755, 641.505 549.320 C 643.399 542.047, 643.389 537.913, 641.458 530.499 C 639.833 524.261, 636.403 518.876, 632.709 516.763 C 631.213 515.908, 623.789 515.339, 609.707 515 L 588.914 514.500 588.958 458.500 C 589 405.812, 589.106 402.508, 590.751 402.635 C 591.713 402.709, 598.922 403.799, 606.772 405.057 C 623.485 407.736, 630.574 407.082, 637.499 402.220 C 654.016 390.624, 647.170 359.072, 626.240 350.327 C 623.171 349.045, 616.516 348.729, 588.012 348.513 C 549.523 348.221, 543.055 347.733, 468 339.462 C 440.775 336.462, 415.551 334.006, 411.946 334.004 C 406.909 334.001, 404.201 334.594, 400.241 336.567 M 403.263 342.099 C 398.137 344.636, 392.838 351.551, 390.472 358.792 C 386.871 369.810, 390.258 385.023, 396.670 386.632 C 402.086 387.991, 408.986 378.718, 409.015 370.038 C 409.040 362.814, 409.120 362.774, 423.373 362.935 C 437.942 363.099, 437.876 363.157, 433.412 354.199 C 427.369 342.073, 414.086 336.742, 403.263 342.099 M 436.474 347.098 C 443.172 356.835, 443 354.518, 443 435.182 C 443 475.232, 443.337 508.011, 443.750 508.024 C 445.334 508.073, 555.947 526.675, 559.750 527.532 C 561.325 527.886, 562 528.765, 562 530.460 C 562 531.792, 561.604 533.127, 561.119 533.426 C 560.635 533.726, 533.522 529.444, 500.869 523.911 C 422.615 510.651, 406.198 508.011, 401.962 508.005 C 397.450 507.999, 390.218 511.675, 387.559 515.327 C 384.746 519.188, 384.643 532.777, 387.386 538 C 389.959 542.900, 394.794 547.803, 399.500 550.285 C 403.151 552.210, 405.810 552.460, 430 553.146 C 460.849 554.021, 498.596 556.837, 536 561.054 C 586.090 566.701, 590.129 567.124, 591.023 566.812 C 591.516 566.640, 590.412 564.250, 588.568 561.500 C 581.850 551.477, 582 553.482, 582 473.398 L 582 401.159 579.250 400.604 C 577.737 400.299, 551.750 395.962, 521.500 390.967 C 491.250 385.972, 465.712 381.655, 464.750 381.375 C 462.981 380.860, 462.266 376.572, 463.792 375.628 C 464.228 375.359, 490.890 379.528, 523.042 384.892 L 581.500 394.645 582.131 384.572 C 582.867 372.829, 585.355 365.282, 590.451 359.328 L 593.886 355.315 571.693 354.663 C 545.893 353.904, 518.659 351.578, 470.241 345.999 C 451.157 343.799, 434.962 342, 434.254 342 C 433.495 342, 434.404 344.090, 436.474 347.098 M 605.145 356.070 C 600.761 357.826, 596.774 361.287, 593.881 365.849 C 589.347 372.998, 589.350 373, 603.378 373 C 613.113 373, 616.019 373.317, 616.989 374.487 C 617.668 375.305, 617.967 376.643, 617.654 377.460 C 617.194 378.658, 614.329 378.998, 602.792 379.222 L 588.500 379.500 588.203 386.903 C 588.040 390.975, 588.272 394.672, 588.719 395.119 C 589.165 395.565, 595.374 396.885, 602.515 398.051 C 618.652 400.685, 629.573 400.454, 633.682 397.391 C 642.995 390.449, 642.876 374.897, 633.421 363.344 C 628.571 357.417, 622.994 354.985, 614.434 355.063 C 610.620 355.098, 606.440 355.551, 605.145 356.070 M 415.642 370.750 C 415.371 371.712, 414.836 374.075, 414.453 376 C 414.069 377.925, 412.911 381.170, 411.878 383.210 C 410.845 385.251, 410 387.163, 410 387.460 C 410 387.757, 416.075 388, 423.500 388 L 437 388 437 378.500 L 437 369 426.567 369 C 417.486 369, 416.071 369.227, 415.642 370.750 M 493.216 412.988 C 487.150 415.742, 485.051 420.688, 485.022 432.300 C 484.990 444.917, 483.511 447.267, 475 448.220 C 472.863 448.459, 472.500 449.008, 472.500 452 C 472.500 454.067, 473.012 455.551, 473.750 455.625 C 474.438 455.694, 476.075 455.806, 477.389 455.875 C 478.703 455.944, 480.818 456.842, 482.088 457.870 C 484.180 459.564, 484.458 460.832, 485.029 471.286 C 485.703 483.621, 486.718 486.459, 491.600 489.658 C 493.015 490.585, 496.159 491.645, 498.586 492.013 L 503 492.683 503 488.966 C 503 485.649, 502.682 485.186, 500.043 484.659 C 495.887 483.827, 494.361 480.174, 493.502 469 C 492.746 459.166, 492.089 456.973, 488.821 453.378 C 487.184 451.577, 487.119 451.168, 488.393 450.679 C 491.358 449.541, 493.080 444.059, 493.708 433.755 C 494.244 424.955, 494.637 423.272, 496.618 421.291 C 497.878 420.031, 499.803 419, 500.896 419 C 503.544 419, 504.284 417.569, 503.495 413.976 C 502.696 410.340, 499.688 410.051, 493.216 412.988 M 522 414.872 C 522 418.294, 522.333 419, 523.944 419 C 525.014 419, 527.129 420.067, 528.646 421.372 C 531.233 423.598, 531.440 424.382, 532.002 434.122 C 532.623 444.868, 533.567 447.883, 537.079 450.342 C 539.058 451.729, 539.068 451.842, 537.321 453.144 C 533.249 456.176, 532.599 458.128, 531.941 469.274 C 531.327 479.690, 531.126 480.495, 528.588 482.678 C 527.103 483.955, 525.014 485, 523.944 485 C 522.389 485, 522 485.700, 522 488.500 C 522 491.894, 522.116 492, 525.852 492 C 530.466 492, 535.623 488.810, 538.232 484.343 C 539.530 482.120, 540.254 478.200, 540.691 471.034 C 541.443 458.683, 542.939 456, 549.073 456 C 552.988 456, 553 455.988, 553 452 C 553 448.085, 552.924 448, 549.455 448 C 547.088 448, 545.144 447.235, 543.608 445.699 C 541.582 443.673, 541.243 442.126, 540.763 432.729 C 539.998 417.742, 536.848 413.119, 526.245 411.423 L 522 410.744 522 414.872 M 588 530.355 L 588 539.711 594.750 540.348 C 609.535 541.745, 609.090 541.938, 610.488 533.500 C 610.853 531.300, 612.210 527.587, 613.505 525.250 L 615.859 521 601.930 521 L 588 521 588 530.355 M 621.726 524.764 C 618.455 528.178, 616 534.893, 616 540.426 C 616 542.722, 615.460 545.140, 614.800 545.800 C 613.996 546.604, 609.509 547, 601.192 547 L 588.783 547 589.449 549.750 C 590.680 554.832, 596.756 562.773, 601.577 565.598 C 618.406 575.461, 636.154 562.090, 636.218 539.500 C 636.239 531.885, 635.027 527.739, 631.759 524.250 C 628.882 521.179, 624.969 521.379, 621.726 524.764 M 240.190 703.026 C 232.929 707.453, 232.713 717.300, 239.798 720.877 C 241.834 721.905, 246.058 723.483, 249.186 724.382 C 255.945 726.327, 257.717 729.191, 254.016 732.188 C 251.124 734.530, 246.602 734.456, 241.141 731.978 C 235.524 729.429, 235.388 729.449, 234.149 733.001 C 233.186 735.765, 233.333 736.121, 236.002 737.501 C 237.596 738.325, 241.189 739.491, 243.987 740.091 C 257.226 742.930, 268.565 733.795, 263.636 724.262 C 262.052 721.199, 259.880 720.009, 249.500 716.518 C 243.288 714.429, 241.659 712.321, 244.040 709.452 C 245.628 707.538, 253.039 707.572, 257.686 709.513 C 259.677 710.345, 261.372 710.908, 261.451 710.763 C 263.506 707.009, 263.976 704.600, 262.801 703.844 C 257.600 700.498, 245.079 700.045, 240.190 703.026 M 272.799 702.250 C 272.688 702.938, 272.576 711.711, 272.549 721.747 L 272.500 739.995 287.250 739.997 L 302 740 302 736.500 L 302 733 291.500 733 L 281 733 281 728.500 L 281 724 290 724 L 299 724 299 720.500 L 299 717 290 717 L 281 717 281 712.500 L 281 708 291 708 L 301 708 301 704.500 L 301 701 287 701 C 276.574 701, 272.949 701.319, 272.799 702.250 M 311 720.500 L 311 740 314.500 740 L 318 740 318 727.941 C 318 720.872, 318.380 716.117, 318.918 716.449 C 319.423 716.762, 322.154 721.316, 324.986 726.569 C 331.719 739.059, 332.476 739.006, 340.247 725.506 L 346 715.512 346 727.756 L 346 740 350.153 740 L 354.306 740 353.657 728.750 C 353.301 722.563, 353.007 713.760, 353.005 709.190 L 353 700.879 349.258 701.190 C 345.591 701.494, 345.396 701.725, 339.508 712.733 C 336.204 718.912, 333.050 724.079, 332.500 724.216 C 331.950 724.354, 328.660 719.186, 325.189 712.733 L 318.878 701 314.939 701 L 311 701 311 720.500 M 374.840 705.691 C 373.685 708.336, 370.051 716.575, 366.764 724 C 363.478 731.425, 360.563 738.063, 360.287 738.750 C 359.934 739.631, 361.023 740, 363.973 740 C 367.930 740, 368.247 739.780, 369.732 736 L 371.303 732 380.726 732 L 390.149 732 391.824 735.990 C 393.404 739.751, 393.744 739.980, 397.750 739.990 C 400.087 739.995, 401.996 739.888, 401.992 739.750 C 401.987 739.612, 398.167 730.950, 393.503 720.500 L 385.023 701.500 380.981 701.191 C 377.020 700.888, 376.898 700.978, 374.840 705.691 M 408 720.500 L 408 740 411.969 740 L 415.938 740 416.219 727.767 L 416.500 715.535 426 727.757 C 435.138 739.514, 435.643 739.980, 439.250 739.990 L 443 740 443 720.500 L 443 701 439 701 L 435 701 434.967 713.750 C 434.935 725.958, 434.860 726.410, 433.217 724.380 C 432.273 723.215, 427.718 717.477, 423.096 711.630 C 415.416 701.915, 414.404 701, 411.346 701 L 408 701 408 720.500 M 449 704.500 L 449 708 455 708 L 461 708 461 724 L 461 740 465.500 740 L 470 740 470 724 L 470 708 476 708 L 482 708 482 704.500 L 482 701 465.500 701 L 449 701 449 704.500 M 489 720.440 L 489 740 493.022 740 L 497.043 740 496.772 720.750 L 496.500 701.500 492.750 701.190 L 489 700.879 489 720.440 M 516.020 703.250 C 513.598 704.487, 510.240 707.229, 508.558 709.343 C 505.784 712.829, 505.500 713.856, 505.500 720.416 C 505.500 726.630, 505.887 728.230, 508.251 731.803 C 513.997 740.486, 526.896 743.207, 536.250 737.708 C 538.862 736.172, 541 734.563, 541 734.132 C 541 733.701, 539.902 732.317, 538.559 731.055 L 536.118 728.762 533.424 730.881 C 530.210 733.409, 523.309 733.728, 519.085 731.544 C 516.113 730.007, 513 724.647, 513 721.067 C 513 717.996, 515.392 712.796, 517.784 710.665 C 521.147 707.671, 527.139 707.405, 532.521 710.010 L 537.179 712.265 539.257 710.187 C 541.080 708.364, 541.161 707.899, 539.918 706.396 C 535.480 701.034, 523.455 699.451, 516.020 703.250 M 570.378 702.437 C 564.640 704.934, 562.236 711.770, 565.146 717.316 C 566.668 720.216, 568.141 721.047, 577 724 C 583.706 726.235, 584.534 726.791, 584.816 729.250 C 585.073 731.482, 584.603 732.201, 582.316 733.073 C 578.716 734.445, 572.348 733.498, 568.193 730.971 L 564.951 728.999 563.975 731.565 C 562.340 735.867, 562.818 736.765, 567.750 738.659 C 573.865 741.007, 583.389 741.009, 587.788 738.663 C 594.532 735.066, 595.899 725.196, 590.212 721.155 C 588.721 720.095, 584.284 718.271, 580.352 717.102 C 574.327 715.310, 572 713.747, 572 711.490 C 572 711.299, 572.707 710.436, 573.571 709.571 C 575.575 707.568, 581.963 707.540, 586.686 709.513 C 588.677 710.345, 590.372 710.908, 590.451 710.763 C 591.775 708.343, 592.913 704.668, 592.530 704.048 C 590.820 701.282, 575.579 700.173, 570.378 702.437 M 610 703.250 C 607.525 704.572, 604.254 707.422, 602.732 709.583 C 594.396 721.417, 601.560 737.851, 616.223 740.532 C 621.064 741.417, 628.818 739.520, 632.548 736.537 L 635.500 734.177 633.148 731.665 L 630.796 729.154 627.648 731.073 C 622.940 733.944, 615.934 733.657, 612.106 730.436 C 605.329 724.733, 606.402 713.429, 614.099 709.449 C 618.008 707.427, 622.377 707.642, 627.177 710.090 L 631.274 712.180 633.765 709.689 L 636.256 707.198 631.989 704.374 C 625.881 700.332, 616.372 699.846, 610 703.250 M 643 720.500 L 643 740 647 740 L 651 740 651 734.500 L 651 729 655.750 729.001 C 660.417 729.002, 660.550 729.091, 663.346 734.069 C 666.551 739.775, 667.318 740.262, 672.396 739.817 L 676.002 739.500 672.068 733.589 L 668.134 727.678 670.967 725.031 C 674.625 721.613, 676.165 716.183, 674.839 711.377 C 672.771 703.888, 666.123 701, 650.951 701 L 643 701 643 720.500 M 694.914 701.956 C 685.668 704.758, 680.213 714.407, 682.117 724.596 C 683.918 734.238, 691.818 740.340, 702.500 740.340 C 714.750 740.340, 723 732.603, 723 721.115 C 723 712.400, 719.272 706.494, 711.500 702.896 C 707.370 700.984, 699.579 700.542, 694.914 701.956 M 731.667 701.667 C 731.300 702.033, 731 710.808, 731 721.167 L 731 740 745 740 L 759 740 759 736.500 L 759 733 749.500 733 L 740 733 740 717 L 740 701 736.167 701 C 734.058 701, 732.033 701.300, 731.667 701.667 M 765 720.500 L 765 740 778.500 740 L 792 740 792 736.500 L 792 733 782.500 733 L 773 733 773 717 L 773 701 769 701 L 765 701 765 720.500 M 651 715 L 651 722 656.777 722 C 664.014 722, 667.006 720.151, 666.985 715.693 C 666.958 710.120, 663.949 708, 656.066 708 L 651 708 651 715 M 695.763 709.565 C 686.801 714.428, 688.668 729.445, 698.667 732.930 C 709.373 736.660, 718.481 725.367, 713.385 714.682 C 710.441 708.507, 702.149 706.100, 695.763 709.565 M 378.272 715.782 C 377.066 718.927, 375.789 722.288, 375.433 723.250 C 374.861 724.796, 375.497 725, 380.893 725 C 384.252 725, 387 724.805, 387 724.566 C 387 723.843, 381.707 711.553, 381.064 710.782 C 380.734 710.388, 379.478 712.638, 378.272 715.782" stroke="none" fill="black" fill-rule="evenodd"/>
</svg>